<?xml version="1.0" encoding="utf-8"?>
<!-- Generator: Adobe Illustrator 19.1.1, SVG Export Plug-In . SVG Version: 6.00 Build 0)  -->
<svg version="1.1" id="Layer_1" xmlns="http://www.w3.org/2000/svg" xmlns:xlink="https://www.w3.org/1999/xlink" width="160" height="32" x="0px" y="0px"
	 viewBox="0 0 693.3 113.6" style="enable-background:new 0 0 693.3 113.6;" xml:space="preserve">
<style type="text/css">
	.st0{fill:#001C29;}
	.st1{fill:#0083C9;}
</style>
<g>
	<path class="st0" d="M66.4,112.3V52.5c0-6.5-3.8-9.6-8.4-9.6c-4.6,0-8.2,3.2-8.2,9.6v59.8H33.1V52.5c0-6.5-3.6-9.6-8.2-9.6
		c-4.6,0-8.2,3.2-8.2,9.6v59.8H0V29.2h16.1v6.2c1.4-1.9,3.5-4.1,5.5-5.2c2.4-1.4,5.4-2.2,8.4-2.2c6.6,0,12.6,3.3,16.3,8.5
		c2.1-2.4,4.7-4.7,7.4-6.3c2.5-1.4,6.3-2.2,8.8-2.2c7.7,0,12,2.1,15.8,6.5c3.3,3.8,4.9,8.4,4.9,18v60H66.4z"/>

        <path class="st0" d="M99.1,31.4h16.7v80.9H99.1V31.4z M98.1,0.2h18.5v18.5H98.1V0.2z"/>
	<path class="st0" d="M143.9,107.3c-5.2-4.1-8.4-10.4-8.4-20.2V42H127V29.2h8.5V7.9h16.7v21.3h11.5V42h-11.5v44.2
		c0,7.7,3.9,11.2,11.8,11.2v15C156.2,112.3,149.6,111.7,143.9,107.3"/>
	<path class="st0" d="M187.1,107.3c-5.2-4.1-8.4-10.4-8.4-20.2V42h-8.5V29.2h8.5V7.9h16.7v21.3H207V42h-11.5v44.2
		c0,7.7,3.9,11.2,11.8,11.2v15C199.4,112.3,192.8,111.7,187.1,107.3"/>
</g>
<g>
	<path class="st1" d="M249,75.6h-5.5c-3.6,0-6.3,0.3-8.7,2.5c-2.1,1.9-3.3,6-3.3,9.3c0,7.4,3,11.5,8.7,11.5c5,0,8.8-4.3,8.8-11.1
		V75.6z M249.9,112.3v-7.1c-1.4,2.1-3.2,4.3-5,5.5c-2.5,1.7-5.2,2.8-9.5,2.8c-6.9,0-11.4-2.1-15.6-6.9c-3.3-3.9-5-10.3-5-18.6
		c0-7.6,2.7-14.2,7.7-18.6c4.1-3.6,9.5-5.7,19.1-5.7h7.4V52.2c0-6.2-2.8-9.6-8-9.6c-2.5,0-4.3,0.9-5.5,2.4c-1.7,1.9-2.5,4.3-2.5,7.7
		h-16.7c0-6.6,1.9-12.8,7.1-18c3.9-3.9,10.7-6.8,17.5-6.8c6.9,0,13.4,1.7,17.7,6.2c4.4,4.4,7.3,10.6,7.3,19.6v58.7H249.9z"/>
	<path class="st1" d="M314.8,112.3V52.5c0-6.5-3.6-9.6-8.2-9.6s-8.2,3.2-8.2,9.6v59.8h-16.7V29.2h16.1v6.2c1.4-1.9,3.5-4.1,5.5-5.2
		c2.4-1.4,5.4-2.2,8.4-2.2c6.8,0,11.4,2.1,15.1,6.5c3.3,3.8,4.7,8.4,4.7,18v60H314.8z"/>
	<path class="st1" d="M378.8,46.2c-1.4-2.2-3.8-3.5-6.3-3.5c-2.1,0-4.3,0.8-5.7,2.2c-1.7,1.7-2.7,4.3-2.7,7.9v35.8
		c0,3.6,0.9,6.2,2.7,7.9c1.4,1.4,3.6,2.1,5.7,2.1c2.5,0,4.9-1.1,6.3-3.3c2.2-3.8,2.4-12.3,2.4-24.6C381.2,58.4,381,50,378.8,46.2
		 M392.1,107.1c-3.8,4.7-8.5,6.5-14.7,6.5c-3,0-6-0.9-8.4-2.4c-1.7-0.9-4.6-3.6-5.5-5.2v6.3h-16.1V0h16.7v34.6
		c1.3-1.7,3.2-3.5,4.9-4.4c2.4-1.4,5.4-2.2,8.4-2.2c6.5,0,10.9,1.9,14.7,6.5c5.5,6.8,5.8,18.3,5.8,36.3
		C397.9,88.7,397.6,100.4,392.1,107.1"/>
	<path class="st1" d="M445.2,112.3V106c-1.4,1.9-3.6,4.1-5.7,5.2c-2.4,1.4-5.4,2.4-8.4,2.4c-6.8,0-11.4-2.1-15.1-6.5
		c-3.3-3.8-4.7-8.4-4.7-18v-60H428V89c0,6.5,3.6,9.6,8.2,9.6s8.2-3.2,8.2-9.6V29.2h16.7v83.2H445.2z"/>
	<path class="st1" d="M508.8,52.9c0-3.6-0.9-6.2-2.7-7.9c-1.4-1.4-3.6-2.2-5.7-2.2c-2.5,0-4.9,1.3-6.3,3.5
		c-2.2,3.8-2.4,12.2-2.4,24.5c0,12.3,0.2,20.8,2.4,24.6c1.4,2.2,3.8,3.3,6.3,3.3c2.1,0,4.3-0.6,5.7-2.1c1.7-1.7,2.7-4.3,2.7-7.9
		V52.9z M509.5,112.3V106c-0.9,1.6-3.8,4.3-5.5,5.2c-2.4,1.4-5.4,2.4-8.4,2.4c-6.2,0-10.9-1.7-14.7-6.5c-5.5-6.8-5.8-18.5-5.8-36.4
		c0-18,0.3-29.5,5.8-36.3c3.8-4.6,8.2-6.5,14.7-6.5c3,0,6,0.8,8.4,2.2c1.7,0.9,3.6,2.7,4.9,4.4V0h16.7v112.3H509.5z"/>
</g>
<g>
        <rect x="542.6" y="92.9" class="st0" width="19.4" height="19.4"/>
        <path class="st0" d="M612,112.3V52.5c0-6.5-3.6-9.6-8.2-9.6c-4.6,0-8.2,3.2-8.2,9.6v59.8h-16.7V29.2H595v6.2
                c1.4-1.9,3.5-4.1,5.5-5.2c2.4-1.4,5.4-2.2,8.4-2.2c6.8,0,11.4,2.1,15.1,6.5c3.3,3.8,4.7,8.4,4.7,18v60H612z"/>
        <path class="st0" d="M674.2,46.2c-1.4-2.2-3.9-3.5-6.5-3.5c-2.5,0-5,1.3-6.5,3.5c-2.2,3.8-2.4,12.2-2.4,24.5
                c0,12.3,0.2,20.8,2.4,24.6c1.4,2.2,3.9,3.3,6.5,3.3c2.5,0,5-1.1,6.5-3.3c2.2-3.8,2.4-12.3,2.4-24.6C676.5,58.4,676.4,50,674.2,46.2
                 M687.4,104.8c-4.9,6.8-11.7,8.8-19.7,8.8c-8,0-14.8-2.1-19.7-8.8c-5.2-7.3-5.8-20-5.8-34.1c0-14,0.6-26.8,5.8-34.1
                c4.9-6.8,11.7-8.7,19.7-8.7c8,0,14.8,1.9,19.7,8.7c5.2,7.3,5.8,20,5.8,34.1C693.3,84.7,692.6,97.5,687.4,104.8"/>
</g>
</svg>
